<?xml version="1.0" encoding="utf-8"?>
<svg version="1.1" xmlns="http://www.w3.org/2000/svg" xmlns:xlink="http://www.w3.org/1999/xlink" x="0px" y="0px"
	 viewBox="0 0 383.6 474.1" enable-background="new 0 0 383.6 474.1" xml:space="preserve">
<g id="logo-text">
	<g id="logo-text-arlos">
		<path d="M37.2,452.9c0-2,0.4-3.9,1.2-5.7c0.8-1.8,1.8-3.3,3.1-4.6c1.3-1.3,2.8-2.4,4.6-3.1c1.8-0.8,3.6-1.2,5.7-1.2
			c1.4,0,2.8,0.2,4.1,0.6c1.3,0.4,2.5,1,3.5,1.7c1.1,0.7,2,1.5,2.8,2.5c0.8,0.9,1.4,1.9,1.8,3c0-1.2,0-2.4,0.1-3.6
			c0-1.2,0.1-2.4,0.2-3.5h2.2v27.9h-2.4v-7.1c-0.8,2.1-2.3,3.9-4.5,5.4c-2.2,1.5-4.8,2.2-7.8,2.2c-2.1,0-4-0.4-5.7-1.2
			c-1.8-0.8-3.3-1.8-4.6-3.1s-2.3-2.8-3.1-4.6C37.6,456.7,37.2,454.8,37.2,452.9z M39.7,452.8c0,1.7,0.3,3.3,0.9,4.7
			c0.6,1.5,1.5,2.7,2.6,3.8c1.1,1.1,2.4,1.9,3.9,2.6c1.5,0.6,3.1,0.9,4.8,0.9c1.7,0,3.3-0.3,4.8-0.9c1.5-0.6,2.8-1.5,3.9-2.6
			c1.1-1.1,2-2.4,2.6-3.8c0.6-1.5,0.9-3,0.9-4.7c0-1.7-0.3-3.3-0.9-4.8c-0.6-1.5-1.5-2.8-2.6-3.9c-1.1-1.1-2.4-1.9-3.9-2.6
			c-1.5-0.6-3.1-0.9-4.8-0.9c-1.7,0-3.3,0.3-4.8,0.9c-1.5,0.6-2.8,1.5-3.9,2.6s-1.9,2.4-2.6,3.9C40,449.5,39.7,451.1,39.7,452.8z"/>
		<path d="M90.3,441.3c-1.5,0-2.9,0.3-4.3,0.8c-1.4,0.5-2.6,1.2-3.6,2.1c-1.1,0.9-1.9,1.9-2.5,3.2c-0.6,1.2-0.9,2.6-0.9,4.1v15.4
			h-2.4v-27.9h2.1c0,0.2,0,0.6,0,1.4c0,0.7,0,1.5,0,2.3c0,0.8,0,1.6,0,2.3c0,0.7,0,1.1,0,1.3c1.1-2.4,2.8-4.3,5-5.7
			c2.2-1.4,4.6-2.1,7-2.1L90.3,441.3z"/>
		<path d="M98.8,466.8h-2.5v-54.6h2.5V466.8z"/>
		<path d="M107,452.8c0-2,0.4-3.9,1.2-5.7c0.8-1.8,1.8-3.3,3.1-4.6c1.3-1.3,2.9-2.4,4.6-3.1c1.8-0.8,3.7-1.2,5.7-1.2
			s3.9,0.4,5.7,1.2c1.8,0.8,3.3,1.8,4.6,3.1c1.3,1.3,2.4,2.9,3.1,4.6c0.8,1.8,1.2,3.7,1.2,5.7c0,2-0.4,3.9-1.2,5.7
			c-0.8,1.8-1.8,3.3-3.1,4.6c-1.3,1.3-2.9,2.3-4.6,3.1c-1.8,0.8-3.7,1.2-5.8,1.2c-2,0-3.9-0.4-5.7-1.1c-1.8-0.7-3.3-1.8-4.6-3.1
			s-2.3-2.8-3.1-4.6C107.4,456.8,107,454.9,107,452.8z M109.5,452.8c0,1.7,0.3,3.3,0.9,4.7c0.6,1.5,1.5,2.7,2.6,3.8
			c1.1,1.1,2.4,1.9,3.8,2.6c1.5,0.6,3,0.9,4.7,0.9c1.7,0,3.3-0.3,4.7-0.9c1.5-0.6,2.7-1.5,3.9-2.6c1.1-1.1,2-2.4,2.6-3.8
			c0.6-1.5,0.9-3,0.9-4.7c0-1.7-0.3-3.3-0.9-4.7c-0.6-1.5-1.5-2.7-2.6-3.9c-1.1-1.1-2.4-2-3.9-2.6c-1.5-0.6-3-0.9-4.7-0.9
			c-1.7,0-3.3,0.3-4.7,0.9c-1.5,0.6-2.7,1.5-3.8,2.6c-1.1,1.1-1.9,2.4-2.6,3.9C109.8,449.5,109.5,451.1,109.5,452.8z"/>
		<path d="M158.1,441.6l-1.4,1.7c-0.6-0.7-1.5-1.3-2.7-1.8c-1.2-0.5-2.3-0.7-3.4-0.7c-0.6,0-1.2,0.1-1.8,0.3s-1.2,0.4-1.8,0.8
			c-0.5,0.4-1,0.9-1.3,1.5c-0.4,0.6-0.5,1.3-0.5,2.2c0,1.2,0.3,2.2,1,2.9c0.7,0.7,1.6,1.3,2.6,1.8c1,0.5,2.2,1,3.4,1.4
			c1.2,0.4,2.4,0.9,3.4,1.5c1,0.6,1.9,1.3,2.6,2.3c0.7,0.9,1,2.1,1,3.6c0,1.1-0.2,2.1-0.6,3.1c-0.4,1-1,1.9-1.7,2.6
			c-0.8,0.8-1.7,1.4-2.8,1.8c-1.1,0.4-2.3,0.6-3.8,0.6c-1.5,0-3-0.3-4.7-0.8c-1.6-0.5-3-1.4-4-2.7c0.3-0.3,0.6-0.6,1-1
			c0.4-0.4,0.6-0.7,0.7-0.8c0.2,0.3,0.6,0.7,1.2,1c0.5,0.3,1.1,0.6,1.8,0.9c0.7,0.3,1.4,0.5,2.1,0.6c0.7,0.2,1.4,0.3,2,0.3
			c0.6,0,1.2-0.1,1.9-0.3c0.7-0.2,1.4-0.5,2.1-0.9c0.6-0.4,1.2-1,1.7-1.7c0.5-0.7,0.7-1.6,0.7-2.6c0-1.2-0.3-2.2-1-3
			c-0.7-0.7-1.6-1.4-2.6-1.8c-1.1-0.5-2.2-0.9-3.4-1.3c-1.2-0.4-2.3-0.9-3.4-1.5c-1.1-0.6-1.9-1.4-2.6-2.3c-0.7-0.9-1-2.2-1-3.7
			c0-1.2,0.2-2.3,0.7-3.2c0.5-0.9,1.1-1.7,1.8-2.3c0.7-0.6,1.6-1,2.5-1.3c0.9-0.3,1.9-0.4,2.8-0.4c1.2,0,2.4,0.2,3.9,0.7
			C155.8,439.7,157,440.5,158.1,441.6z"/>
	</g>
	<g id="logo-text-lt">
		<path d="M31.6,464.5v3.4L0,449.6l31.6-18.3v3.4L5.8,449.6L31.6,464.5z"/>
	</g>
	<g id="logo-text-slash">
		<path d="M180.4,474.1l20.1-54.6h2.7c-3.4,9.2-6.8,18.3-10.1,27.3c-3.3,9-6.7,18.1-10.1,27.3H180.4z"/>
	</g>
	<path id="logo-text-gt" d="M204.2,431.3l0,3.4l17,9.9l-8.7,5l8.7,5.1l-17.1,9.8l0,3.4l22.9-13.2l-8.7-5.1l8.8-5L204.2,431.3z"/>
	<g id="logo-text-araza">
		<path d="M236.3,452.9c0-2,0.4-3.9,1.2-5.7c0.8-1.8,1.8-3.3,3.1-4.6s2.8-2.4,4.6-3.1c1.8-0.8,3.6-1.2,5.7-1.2
			c1.4,0,2.8,0.2,4.1,0.6c1.3,0.4,2.5,1,3.5,1.7c1.1,0.7,2,1.5,2.8,2.5c0.8,0.9,1.4,1.9,1.8,3c0-1.2,0-2.4,0.1-3.6
			c0-1.2,0.1-2.4,0.2-3.5h2.2v27.9H263v-7.1c-0.8,2.1-2.3,3.9-4.5,5.4c-2.2,1.5-4.8,2.2-7.8,2.2c-2.1,0-4-0.4-5.7-1.2
			c-1.8-0.8-3.3-1.8-4.6-3.1s-2.3-2.8-3.1-4.6C236.6,456.7,236.3,454.8,236.3,452.9z M238.7,452.8c0,1.7,0.3,3.3,0.9,4.7
			c0.6,1.5,1.5,2.7,2.6,3.8c1.1,1.1,2.4,1.9,3.9,2.6c1.5,0.6,3.1,0.9,4.8,0.9c1.7,0,3.3-0.3,4.8-0.9c1.5-0.6,2.8-1.5,3.9-2.6
			c1.1-1.1,2-2.4,2.6-3.8c0.6-1.5,0.9-3,0.9-4.7c0-1.7-0.3-3.3-0.9-4.8c-0.6-1.5-1.5-2.8-2.6-3.9c-1.1-1.1-2.4-1.9-3.9-2.6
			c-1.5-0.6-3.1-0.9-4.8-0.9c-1.7,0-3.3,0.3-4.8,0.9c-1.5,0.6-2.8,1.5-3.9,2.6s-1.9,2.4-2.6,3.9C239,449.5,238.7,451.1,238.7,452.8z
			"/>
		<path d="M289.3,441.3c-1.5,0-2.9,0.3-4.3,0.8c-1.4,0.5-2.6,1.2-3.6,2.1c-1.1,0.9-1.9,1.9-2.5,3.2c-0.6,1.2-0.9,2.6-0.9,4.1v15.4
			h-2.4v-27.9h2.1c0,0.2,0,0.6,0,1.4c0,0.7,0,1.5,0,2.3c0,0.8,0,1.6,0,2.3c0,0.7,0,1.1,0,1.3c1.1-2.4,2.8-4.3,5-5.7
			c2.2-1.4,4.6-2.1,7-2.1L289.3,441.3z"/>
		<path d="M291.3,452.9c0-2,0.4-3.9,1.2-5.7c0.8-1.8,1.8-3.3,3.1-4.6c1.3-1.3,2.8-2.4,4.6-3.1c1.8-0.8,3.6-1.2,5.7-1.2
			c1.4,0,2.8,0.2,4.1,0.6c1.3,0.4,2.5,1,3.5,1.7c1.1,0.7,2,1.5,2.8,2.5c0.8,0.9,1.4,1.9,1.8,3c0-1.2,0-2.4,0.1-3.6
			c0-1.2,0.1-2.4,0.2-3.5h2.2v27.9H318v-7.1c-0.8,2.1-2.3,3.9-4.5,5.4c-2.2,1.5-4.8,2.2-7.8,2.2c-2.1,0-4-0.4-5.7-1.2
			c-1.8-0.8-3.3-1.8-4.6-3.1s-2.3-2.8-3.1-4.6C291.6,456.7,291.3,454.8,291.3,452.9z M293.7,452.8c0,1.7,0.3,3.3,0.9,4.7
			c0.6,1.5,1.5,2.7,2.6,3.8c1.1,1.1,2.4,1.9,3.9,2.6c1.5,0.6,3.1,0.9,4.8,0.9c1.7,0,3.3-0.3,4.8-0.9c1.5-0.6,2.8-1.5,3.9-2.6
			c1.1-1.1,2-2.4,2.6-3.8c0.6-1.5,0.9-3,0.9-4.7c0-1.7-0.3-3.3-0.9-4.8c-0.6-1.5-1.5-2.8-2.6-3.9c-1.1-1.1-2.4-1.9-3.9-2.6
			c-1.5-0.6-3.1-0.9-4.8-0.9c-1.7,0-3.3,0.3-4.8,0.9c-1.5,0.6-2.8,1.5-3.9,2.6s-1.9,2.4-2.6,3.9C294,449.5,293.7,451.1,293.7,452.8z
			"/>
		<path d="M349.9,466.8h-22.5l18.3-25.6h-13.5c-1.5,0-2.7-0.3-3.5-0.8c-0.8-0.6-1.2-1.5-1.2-3v-1.1h2.3v0.9c0,1.2,0.8,1.7,2.4,1.7
			h18.1l-18.1,25.4h17.9V466.8z"/>
		<path d="M354.4,452.9c0-2,0.4-3.9,1.2-5.7c0.8-1.8,1.8-3.3,3.1-4.6s2.8-2.4,4.6-3.1c1.8-0.8,3.6-1.2,5.7-1.2
			c1.4,0,2.8,0.2,4.1,0.6c1.3,0.4,2.5,1,3.5,1.7c1.1,0.7,2,1.5,2.8,2.5c0.8,0.9,1.4,1.9,1.8,3c0-1.2,0-2.4,0.1-3.6
			c0-1.2,0.1-2.4,0.2-3.5h2.2v27.9h-2.4v-7.1c-0.8,2.1-2.3,3.9-4.5,5.4c-2.2,1.5-4.8,2.2-7.8,2.2c-2.1,0-4-0.4-5.7-1.2
			c-1.8-0.8-3.3-1.8-4.6-3.1s-2.3-2.8-3.1-4.6C354.8,456.7,354.4,454.8,354.4,452.9z M356.9,452.8c0,1.7,0.3,3.3,0.9,4.7
			c0.6,1.5,1.5,2.7,2.6,3.8c1.1,1.1,2.4,1.9,3.9,2.6c1.5,0.6,3.1,0.9,4.8,0.9c1.7,0,3.3-0.3,4.8-0.9c1.5-0.6,2.8-1.5,3.9-2.6
			c1.1-1.1,2-2.4,2.6-3.8c0.6-1.5,0.9-3,0.9-4.7c0-1.7-0.3-3.3-0.9-4.8c-0.6-1.5-1.5-2.8-2.6-3.9c-1.1-1.1-2.4-1.9-3.9-2.6
			c-1.5-0.6-3.1-0.9-4.8-0.9c-1.7,0-3.3,0.3-4.8,0.9c-1.5,0.6-2.8,1.5-3.9,2.6s-1.9,2.4-2.6,3.9
			C357.2,449.5,356.9,451.1,356.9,452.8z"/>
	</g>
</g>
<g id="logo">
	<path id="logo-left" d="M192.5,0L27,95.6v191.1l101.9,58.8L244.7,30.2L192.5,0z M167,201.6l-4.6,12.5L70.3,103.3l142-24.6
		l-4.6,12.5l-116,19.9L167,201.6z"/>
	<g id="logo-right">
		<path d="M281.2,202.8c-0.1-2.1-0.2-4.3-0.2-6.3c-0.1-2.1-0.1-4-0.1-5.7c-2.1,0.2-4,1-5.7,2.3c-1.6,1.3-2.8,2.9-3.6,4.9
			c-0.6,1.7-0.9,3.4-0.8,5.2c0.1,1.7,0.5,3.4,1.2,4.9c0.7,1.5,1.7,2.9,2.9,4.1c1.2,1.2,2.7,2.1,4.3,2.7c0.9,0.3,1.6,0.5,2.3,0.6
			c-0.1-1.9-0.2-3.9-0.2-6.1C281.3,207.1,281.3,204.9,281.2,202.8z"/>
		<path d="M253.7,35.4c-20,54.3-46.3,126.1-55.8,152.1c-10.6,28.8-40.4,109.8-60.1,163.1l54.6,31.5L358,286.7V95.6L253.7,35.4z
			 M270.4,291.6l-102.7,17.8l4.6-12.5l76.7-13.2l-25.4-30.6l39.2-6.8l-49.8-59.8l4.6-12.5l66.7,80.2l-39.3,6.8L270.4,291.6z
			 M300.6,208.4c-0.9,2.3-2.1,4.4-3.7,6.1c-1.6,1.7-3.5,3.1-5.5,4c-2,1-4.2,1.5-6.6,1.7s-4.7-0.2-7-1.1c-2.3-0.8-4.3-2.1-6-3.7
			s-3.1-3.5-4-5.6c-1-2.1-1.5-4.3-1.6-6.6c-0.1-2.3,0.2-4.7,1.1-6.9c1.3-3.5,3.5-6.2,6.6-8c3.1-1.8,6.5-2.7,10.2-2.7
			c0,2.1,0.1,4.4,0.1,6.9c0.1,2.5,0.1,5.1,0.2,7.8c0.1,2.7,0.2,5.3,0.3,7.9c0.1,2.6,0.2,5.1,0.2,7.3c2.5-0.2,4.8-1,6.9-2.5
			c2.1-1.5,3.6-3.5,4.5-6.1c0.6-1.7,0.9-3.4,0.9-5.2c0-1.8-0.3-3.4-1-4.8l4.3-2.1c0.8,2.1,1.2,4.3,1.3,6.6
			C301.8,203.8,301.5,206.2,300.6,208.4z M315,169.4c-1.1,3-2.8,5.4-5,7.2c-2.2,1.8-4.5,2.8-6.9,3c0.5,0.2,1.1,0.4,1.6,0.5
			c0.5,0.2,1.1,0.3,1.7,0.6l3.4,1.2l-1.6,4.4l-61.1-22.5l1.6-4.4l35.9,13.2c-1.6-1.7-2.7-4-3.4-6.8c-0.7-2.8-0.4-5.7,0.7-8.8
			c0.9-2.4,2.1-4.4,3.7-6.1c1.6-1.7,3.3-3,5.3-3.9c2-0.9,4.2-1.4,6.5-1.5c2.4-0.1,4.8,0.3,7.2,1.2c2.3,0.9,4.4,2.1,6.1,3.6
			c1.7,1.6,3,3.4,4,5.4c0.9,2,1.5,4.2,1.6,6.6C316.2,164.6,315.9,167,315,169.4z"/>
		<path d="M307.2,154c-1.3-1.1-2.8-2-4.5-2.6c-1.8-0.6-3.5-1-5.2-0.9c-1.7,0-3.3,0.4-4.8,1.1c-1.5,0.7-2.8,1.7-4,2.9
			s-2.1,2.8-2.7,4.5s-0.9,3.5-0.8,5.3c0.1,1.8,0.5,3.4,1.1,4.9c0.7,1.5,1.6,2.9,2.9,4.1c1.3,1.2,2.8,2.1,4.5,2.7
			c1.8,0.6,3.5,0.9,5.2,0.8c1.7-0.1,3.4-0.5,4.9-1.2c1.5-0.7,2.9-1.7,4.1-3c1.2-1.3,2.1-2.8,2.8-4.6c0.6-1.8,0.9-3.5,0.8-5.2
			c-0.1-1.7-0.5-3.3-1.2-4.8C309.5,156.4,308.5,155.1,307.2,154z"/>
		<path id="logo-right-noweb" d="M253.7,35.4c-20,54.3-46.3,126.1-55.8,152.1c-10.6,28.8-40.4,109.8-60.1,163.1l54.6,31.5L358,286.7
			V95.6L253.7,35.4z M270.4,291.6l-102.7,17.8l4.6-12.5l76.7-13.2l-25.4-30.6l39.2-6.8l-49.8-59.8l4.6-12.5l66.7,80.2l-39.3,6.8
			L270.4,291.6z"/>
	</g>
</g>
</svg>
